<svg width="160" height="48" viewBox="0 0 122 48" fill="none" xmlns="http://www.w3.org/2000/svg">
<g clip-path="url(#clip0_27720_72320)">
<g clip-path="url(#clip1_27720_72320)">
<path d="M10.6916 7.26293C2.47156 19.9229 4.81156 37.6229 17.3516 47.1629C17.5916 47.4029 17.7116 47.7029 17.5916 47.8829C17.4716 48.0629 17.1116 48.0629 16.8716 47.8229C10.9215 43.1139 6.99398 36.3105 5.89156 28.8029C4.75156 21.2429 6.43156 13.5629 10.6916 7.26293ZM11.3516 42.9029C9.61156 44.4029 6.13156 43.1429 4.39156 39.6629C6.49156 38.6429 9.31156 40.2629 11.3516 42.9029ZM13.2116 35.0429C14.3516 37.3829 14.3516 40.3229 12.6116 41.8829C10.5716 39.2429 11.1716 36.0029 13.2116 35.0429ZM8.11156 37.6829C6.13156 38.8829 3.01156 36.9629 1.99156 33.2429C4.21156 32.7029 6.61156 34.8029 8.11156 37.6829ZM11.5316 30.4829C12.1916 33.0029 11.5916 35.8829 9.55156 36.9629H9.49156C8.05156 34.0229 9.31156 31.0229 11.5316 30.4829ZM6.01156 32.1029C3.79156 32.8229 1.15156 30.3629 0.851562 26.5229C3.13156 26.4029 5.11156 28.9829 6.01156 32.1029ZM10.7516 25.7429C10.9316 28.3229 9.73156 30.9629 7.51156 31.6829V31.6229C6.67156 28.5029 8.41156 25.8629 10.7516 25.7429ZM1.03156 19.6829C3.31156 20.1029 4.75156 22.9829 4.99156 26.1629C2.71156 26.4629 0.551563 23.5229 1.03156 19.6829ZM10.8716 20.9429C10.5116 23.5229 8.89156 25.8029 6.61156 26.1029L6.55156 26.0429C6.37156 22.8629 8.59156 20.5829 10.8716 20.9429ZM11.8916 16.2629C11.1116 18.7229 9.01156 20.6429 6.73156 20.4029C7.09156 17.2229 9.73156 15.4229 11.8916 16.2629ZM2.47156 13.0229C4.57156 13.8629 5.47156 16.9229 5.17156 20.0429L5.11156 20.2229H5.05156C2.83156 19.9229 1.33156 16.8029 2.41156 13.2029L2.47156 13.0229ZM13.8116 11.7629C12.4916 14.0429 10.1516 15.5429 7.93156 14.8829C8.89156 11.8229 11.8316 10.5029 13.8116 11.7629ZM5.23156 6.72293C7.15156 7.98293 7.39156 11.2829 6.43156 14.4029C4.21156 13.7429 3.25156 10.1429 5.23156 6.72293ZM16.6316 7.68293C14.8316 9.72293 12.1916 10.7429 10.1516 9.66293C11.7716 6.78293 15.0116 6.06293 16.6316 7.68293ZM9.19156 0.96293C10.8716 2.64293 10.3916 6.00293 8.77156 8.82293C6.79156 7.74293 6.55156 4.02293 9.19156 0.96293ZM17.5916 0.00292969C16.5116 2.82293 14.2316 5.04293 11.4716 6.12293C11.4716 3.24293 14.5916 0.0629297 17.5916 0.00292969Z" fill="#00AA45"/>
</g>
<path d="M24.3687 18.0029V10.7302H25.6862V16.8985H28.8893V18.0029H24.3687ZM31.2401 18.0029H29.8339L32.3943 10.7302H34.0207L36.5846 18.0029H35.1784L33.2359 12.2217H33.1791L31.2401 18.0029ZM31.2863 15.1514H35.1215V16.2096H31.2863V15.1514ZM42.127 10.7302H43.4445V15.4816C43.4445 16.0025 43.3214 16.4606 43.0752 16.8559C42.8314 17.2513 42.4881 17.5602 42.0454 17.7828C41.6027 18.0029 41.0854 18.113 40.4935 18.113C39.8993 18.113 39.3808 18.0029 38.9381 17.7828C38.4954 17.5602 38.1521 17.2513 37.9083 16.8559C37.6644 16.4606 37.5425 16.0025 37.5425 15.4816V10.7302H38.86V15.3715C38.86 15.6746 38.9263 15.9445 39.0589 16.1812C39.1938 16.4179 39.3832 16.6038 39.627 16.7387C39.8709 16.8713 40.1597 16.9376 40.4935 16.9376C40.8273 16.9376 41.1162 16.8713 41.36 16.7387C41.6062 16.6038 41.7956 16.4179 41.9282 16.1812C42.0608 15.9445 42.127 15.6746 42.127 15.3715V10.7302ZM50.8531 10.7302V18.0029H49.6812L46.2544 13.0491H46.194V18.0029H44.8765V10.7302H46.0555L49.4788 15.6876H49.5427V10.7302H50.8531ZM58.5138 13.184H57.1856C57.1478 12.9662 57.0779 12.7733 56.9761 12.6052C56.8743 12.4347 56.7477 12.2903 56.5961 12.172C56.4446 12.0536 56.2718 11.9648 56.0777 11.9056C55.8859 11.8441 55.6788 11.8133 55.4562 11.8133C55.0609 11.8133 54.7105 11.9127 54.4051 12.1116C54.0997 12.3081 53.8606 12.5969 53.6878 12.9781C53.5149 13.3569 53.4285 13.8197 53.4285 14.3666C53.4285 14.9229 53.5149 15.3917 53.6878 15.7728C53.863 16.1516 54.1021 16.4381 54.4051 16.6322C54.7105 16.824 55.0597 16.9198 55.4527 16.9198C55.6705 16.9198 55.8741 16.8914 56.0635 16.8346C56.2552 16.7754 56.4269 16.689 56.5784 16.5754C56.7323 16.4617 56.8613 16.3221 56.9655 16.1563C57.072 15.9906 57.1454 15.8012 57.1856 15.5882L58.5138 15.5953C58.464 15.9409 58.3563 16.2652 58.1906 16.5683C58.0273 16.8713 57.813 17.1388 57.5479 17.3708C57.2827 17.6005 56.9726 17.7804 56.6175 17.9106C56.2623 18.0384 55.8682 18.1024 55.4349 18.1024C54.7957 18.1024 54.2252 17.9544 53.7233 17.6585C53.2214 17.3625 52.826 16.9352 52.5372 16.3765C52.2484 15.8178 52.104 15.1478 52.104 14.3666C52.104 13.5829 52.2496 12.913 52.5407 12.3566C52.8319 11.7979 53.2285 11.3706 53.7304 11.0747C54.2323 10.7787 54.8005 10.6308 55.4349 10.6308C55.8398 10.6308 56.2162 10.6876 56.5642 10.8012C56.9122 10.9149 57.2223 11.0818 57.4946 11.3019C57.7668 11.5197 57.9906 11.7873 58.1657 12.1045C58.3433 12.4194 58.4593 12.7792 58.5138 13.184ZM59.7203 18.0029V10.7302H61.0377V13.809H64.4078V10.7302H65.7288V18.0029H64.4078V14.9134H61.0377V18.0029H59.7203ZM67.1617 18.0029V10.7302H71.8918V11.8346H68.4791V13.809H71.6468V14.9134H68.4791V16.8985H71.9202V18.0029H67.1617ZM75.7004 18.0029H73.2359V10.7302H75.7501C76.4722 10.7302 77.0924 10.8758 77.6109 11.167C78.1317 11.4558 78.5318 11.8713 78.8112 12.4134C79.0905 12.9556 79.2302 13.6043 79.2302 14.3595C79.2302 15.117 79.0893 15.7681 78.8076 16.3126C78.5283 16.8571 78.1246 17.2749 77.5967 17.5661C77.0711 17.8573 76.439 18.0029 75.7004 18.0029ZM74.5534 16.863H75.6365C76.1431 16.863 76.5657 16.7707 76.9042 16.586C77.2427 16.399 77.4972 16.1208 77.6677 15.7515C77.8382 15.3798 77.9234 14.9158 77.9234 14.3595C77.9234 13.8031 77.8382 13.3415 77.6677 12.9745C77.4972 12.6052 77.2451 12.3294 76.9113 12.1471C76.5799 11.9624 76.1679 11.8701 75.6755 11.8701H74.5534V16.863ZM89.461 14.3666C89.461 15.1502 89.3142 15.8213 89.0207 16.3801C88.7295 16.9364 88.3318 17.3625 87.8275 17.6585C87.3256 17.9544 86.7562 18.1024 86.1194 18.1024C85.4826 18.1024 84.912 17.9544 84.4078 17.6585C83.9059 17.3602 83.5081 16.9329 83.2146 16.3765C82.9234 15.8178 82.7778 15.1478 82.7778 14.3666C82.7778 13.5829 82.9234 12.913 83.2146 12.3566C83.5081 11.7979 83.9059 11.3706 84.4078 11.0747C84.912 10.7787 85.4826 10.6308 86.1194 10.6308C86.7562 10.6308 87.3256 10.7787 87.8275 11.0747C88.3318 11.3706 88.7295 11.7979 89.0207 12.3566C89.3142 12.913 89.461 13.5829 89.461 14.3666ZM88.1365 14.3666C88.1365 13.815 88.05 13.3498 87.8772 12.971C87.7068 12.5898 87.47 12.3022 87.167 12.108C86.864 11.9115 86.5148 11.8133 86.1194 11.8133C85.724 11.8133 85.3749 11.9115 85.0718 12.108C84.7688 12.3022 84.5309 12.5898 84.358 12.971C84.1876 13.3498 84.1024 13.815 84.1024 14.3666C84.1024 14.9182 84.1876 15.3846 84.358 15.7657C84.5309 16.1445 84.7688 16.4321 85.0718 16.6286C85.3749 16.8228 85.724 16.9198 86.1194 16.9198C86.5148 16.9198 86.864 16.8228 87.167 16.6286C87.47 16.4321 87.7068 16.1445 87.8772 15.7657C88.05 15.3846 88.1365 14.9182 88.1365 14.3666ZM96.6832 10.7302V18.0029H95.5113L92.0844 13.0491H92.0241V18.0029H90.7066V10.7302H91.8856L95.3089 15.6876H95.3728V10.7302H96.6832Z" fill="#8A8A8A"/>
<path d="M36.7096 29.3204C36.7096 30.2375 36.4732 31.0311 36.0006 31.7013C35.535 32.3715 34.8718 32.8901 34.0112 33.2569C33.1575 33.6237 32.1487 33.8072 30.9847 33.8072C30.2087 33.8072 29.4997 33.726 28.8577 33.5638C28.2157 33.4015 27.6549 33.1722 27.1752 32.8759L27.3233 31.9341C27.5773 32.1105 27.8524 32.2587 28.1487 32.3786C28.445 32.4915 28.7589 32.5796 29.0905 32.6431C29.4221 32.6996 29.7678 32.7278 30.1276 32.7278C30.7766 32.7278 31.3551 32.5938 31.863 32.3257C32.3709 32.0576 32.7695 31.6625 33.0588 31.1405C33.348 30.6184 33.4926 29.9835 33.4926 29.2357C33.4926 28.368 33.3198 27.6167 32.9741 26.9818C32.6355 26.3468 32.1558 25.853 31.535 25.5003C30.9142 25.1475 30.184 24.9712 29.3445 24.9712H28.5085V36.9712C28.5085 37.1264 28.5508 37.2604 28.6355 37.3733C28.7201 37.4791 28.8542 37.5461 29.0376 37.5744L29.9582 37.7013C30.1346 37.7366 30.2616 37.7966 30.3392 37.8812C30.4168 37.9659 30.4556 38.0893 30.4556 38.2516C30.4556 38.3997 30.4027 38.5197 30.2969 38.6114C30.1981 38.696 30.0394 38.7384 29.8207 38.7384H24.2969C24.0782 38.7384 23.9159 38.696 23.8101 38.6114C23.7043 38.5197 23.6514 38.3997 23.6514 38.2516C23.6514 37.9835 23.7995 37.8036 24.0958 37.7119L24.7096 37.5744C24.8789 37.525 25.0059 37.4509 25.0905 37.3521C25.1822 37.2534 25.2281 37.1264 25.2281 36.9712V25.6908C25.2281 25.5356 25.1822 25.4086 25.0905 25.3098C25.0059 25.211 24.8789 25.137 24.7096 25.0876L24.0958 24.95C23.7995 24.8583 23.6514 24.6784 23.6514 24.4103C23.6514 24.2551 23.7043 24.1352 23.8101 24.0505C23.9159 23.9659 24.0782 23.9236 24.2969 23.9236H29.4291C30.9671 23.9236 32.2792 24.1564 33.3657 24.622C34.4521 25.0805 35.281 25.719 35.8524 26.5373C36.4239 27.3486 36.7096 28.2763 36.7096 29.3204Z" fill="white"/>
<path d="M46.9281 32.4844C46.9281 32.8583 46.8223 33.1475 46.6107 33.3521C46.399 33.5497 46.0886 33.6484 45.6795 33.6484H39.0763V32.8442H43.4043C43.7641 32.8442 43.944 32.6819 43.944 32.3574C43.944 31.4262 43.7747 30.7207 43.4361 30.241C43.0975 29.7542 42.6424 29.5109 42.071 29.5109C41.6336 29.5109 41.2456 29.6449 40.907 29.913C40.5684 30.1811 40.3038 30.5655 40.1133 31.0664C39.9229 31.5602 39.8276 32.1599 39.8276 32.8654C39.8276 34.2269 40.1451 35.2498 40.78 35.9341C41.422 36.6184 42.2756 36.9606 43.3408 36.9606C43.9617 36.9606 44.5049 36.8371 44.9705 36.5902C45.4431 36.3433 45.81 35.9906 46.071 35.532C46.198 35.3909 46.2968 35.2957 46.3673 35.2463C46.4449 35.1969 46.5225 35.1722 46.6001 35.1722C46.713 35.1722 46.7941 35.2251 46.8435 35.331C46.8929 35.4297 46.9176 35.5497 46.9176 35.6908C46.8893 36.2833 46.6777 36.8336 46.2826 37.3415C45.8876 37.8424 45.355 38.2445 44.6848 38.5479C44.0146 38.8512 43.2456 39.0029 42.3779 39.0029C41.355 39.0029 40.4484 38.7948 39.6583 38.3786C38.8682 37.9553 38.2474 37.3662 37.7959 36.6114C37.3514 35.8495 37.1292 34.9606 37.1292 33.9447C37.1292 32.8795 37.3408 31.9341 37.7641 31.1087C38.1945 30.2833 38.8082 29.6378 39.6054 29.1722C40.4026 28.7066 41.355 28.4738 42.4625 28.4738C43.4079 28.4738 44.2121 28.6467 44.8752 28.9923C45.5454 29.331 46.0534 29.8036 46.399 30.4103C46.7518 31.01 46.9281 31.7013 46.9281 32.4844Z" fill="white"/>
<path d="M57.7896 32.4844C57.7896 32.8583 57.6838 33.1475 57.4721 33.3521C57.2605 33.5497 56.9501 33.6484 56.5409 33.6484H49.9377V32.8442H54.2658C54.6256 32.8442 54.8055 32.6819 54.8055 32.3574C54.8055 31.4262 54.6361 30.7207 54.2975 30.241C53.9589 29.7542 53.5039 29.5109 52.9324 29.5109C52.4951 29.5109 52.107 29.6449 51.7684 29.913C51.4298 30.1811 51.1652 30.5655 50.9748 31.0664C50.7843 31.5602 50.6891 32.1599 50.6891 32.8654C50.6891 34.2269 51.0065 35.2498 51.6414 35.9341C52.2834 36.6184 53.137 36.9606 54.2023 36.9606C54.8231 36.9606 55.3663 36.8371 55.8319 36.5902C56.3046 36.3433 56.6714 35.9906 56.9324 35.532C57.0594 35.3909 57.1582 35.2957 57.2287 35.2463C57.3063 35.1969 57.3839 35.1722 57.4615 35.1722C57.5744 35.1722 57.6555 35.2251 57.7049 35.331C57.7543 35.4297 57.779 35.5497 57.779 35.6908C57.7508 36.2833 57.5391 36.8336 57.1441 37.3415C56.749 37.8424 56.2164 38.2445 55.5462 38.5479C54.876 38.8512 54.107 39.0029 53.2393 39.0029C52.2164 39.0029 51.3099 38.7948 50.5197 38.3786C49.7296 37.9553 49.1088 37.3662 48.6573 36.6114C48.2129 35.8495 47.9906 34.9606 47.9906 33.9447C47.9906 32.8795 48.2023 31.9341 48.6256 31.1087C49.0559 30.2833 49.6697 29.6378 50.4668 29.1722C51.264 28.7066 52.2164 28.4738 53.324 28.4738C54.2693 28.4738 55.0735 28.6467 55.7367 28.9923C56.4069 29.331 56.9148 29.8036 57.2605 30.4103C57.6132 31.01 57.7896 31.7013 57.7896 32.4844Z" fill="white"/>
<path d="M62.7251 33.1299C62.7251 32.107 62.8697 31.2498 63.159 30.5585C63.4482 29.8671 63.8292 29.3486 64.3018 29.0029C64.7745 28.6502 65.2824 28.4738 65.8256 28.4738C66.4958 28.4738 67.0143 28.6643 67.3812 29.0453C67.748 29.4262 67.9314 29.9729 67.9314 30.6855C67.9314 31.3204 67.8009 31.793 67.5399 32.1035C67.2789 32.4139 66.9403 32.5691 66.524 32.5691C66.1008 32.5691 65.7798 32.4562 65.5611 32.2304C65.3424 32.0047 65.233 31.6908 65.233 31.2886V30.9077C65.226 30.6819 65.1731 30.5162 65.0743 30.4103C64.9755 30.2975 64.8133 30.241 64.5875 30.241C64.3406 30.241 64.1008 30.3433 63.868 30.5479C63.6422 30.7525 63.4553 31.0629 63.3071 31.4791C63.166 31.8953 63.0955 32.428 63.0955 33.077L62.7251 33.1299ZM62.9262 29.204L63.0955 31.6061V37.0347C63.0955 37.2393 63.1343 37.3909 63.2119 37.4897C63.2965 37.5814 63.4447 37.6449 63.6563 37.6802L64.5664 37.8177C64.7286 37.846 64.8486 37.8989 64.9262 37.9765C65.0108 38.0541 65.0531 38.1599 65.0531 38.2939C65.0531 38.435 65.0002 38.5444 64.8944 38.622C64.7956 38.6996 64.651 38.7384 64.4605 38.7384H59.5187C59.3212 38.7384 59.1766 38.6996 59.0849 38.622C58.9932 38.5444 58.9473 38.4385 58.9473 38.3045C58.9473 38.1987 58.9791 38.1105 59.0426 38.04C59.106 37.9624 59.2048 37.8989 59.3389 37.8495L59.7516 37.7437C59.8785 37.7013 59.9702 37.6308 60.0267 37.532C60.0902 37.4262 60.1219 37.2639 60.1219 37.0453V31.0029C60.1219 30.8195 60.0937 30.689 60.0373 30.6114C59.9879 30.5338 59.9032 30.4844 59.7833 30.4632L59.2225 30.4209C59.0955 30.3927 59.0038 30.3468 58.9473 30.2834C58.8909 30.2199 58.8627 30.1387 58.8627 30.04C58.8627 29.92 58.8979 29.8248 58.9685 29.7543C59.039 29.6837 59.166 29.6132 59.3494 29.5426L61.2754 28.8442C61.621 28.7102 61.875 28.6255 62.0373 28.5902C62.1995 28.5479 62.3265 28.5267 62.4182 28.5267C62.5734 28.5267 62.6898 28.5796 62.7674 28.6855C62.845 28.7842 62.8979 28.9571 62.9262 29.204Z" fill="white"/>
<path d="M72.8101 23.6802V37.0453C72.8101 37.2639 72.8383 37.4262 72.8947 37.532C72.9582 37.6308 73.0535 37.7013 73.1805 37.7437L73.5826 37.8495C73.7166 37.8918 73.8154 37.9518 73.8789 38.0294C73.9424 38.0999 73.9741 38.1916 73.9741 38.3045C73.9741 38.4385 73.9282 38.5444 73.8365 38.622C73.7448 38.6996 73.5967 38.7384 73.3921 38.7384H69.2228C69.0252 38.7384 68.8806 38.6996 68.7889 38.622C68.6972 38.5444 68.6514 38.4385 68.6514 38.3045C68.6514 38.1987 68.6831 38.1105 68.7466 38.04C68.8101 37.9624 68.9088 37.8989 69.0429 37.8495L69.4556 37.7437C69.5826 37.6943 69.6743 37.6202 69.7307 37.5214C69.7942 37.4227 69.826 37.2639 69.826 37.0453V25.458C69.826 25.2816 69.7977 25.1546 69.7413 25.077C69.6919 24.9994 69.6073 24.95 69.4873 24.9289L68.9265 24.8865C68.7995 24.8513 68.7078 24.8019 68.6514 24.7384C68.5949 24.6749 68.5667 24.5938 68.5667 24.495C68.5667 24.3821 68.602 24.2904 68.6725 24.2199C68.7431 24.1493 68.87 24.0788 69.0535 24.0082L71.0217 23.2886C71.3039 23.1828 71.5261 23.1088 71.6884 23.0664C71.8506 23.0241 71.9917 23.0029 72.1117 23.0029C72.3445 23.0029 72.5173 23.0664 72.6302 23.1934C72.7501 23.3133 72.8101 23.4756 72.8101 23.6802Z" fill="white"/>
<path d="M79.1452 29.1934V37.0453C79.1452 37.2639 79.1734 37.4262 79.2299 37.532C79.2934 37.6308 79.3886 37.7013 79.5156 37.7437L79.9177 37.8495C80.0518 37.8918 80.1505 37.9518 80.214 38.0294C80.2775 38.0999 80.3093 38.1916 80.3093 38.3045C80.3093 38.4385 80.2634 38.5444 80.1717 38.622C80.08 38.6996 79.9318 38.7384 79.7272 38.7384H75.5579C75.3604 38.7384 75.2158 38.6996 75.1241 38.622C75.0324 38.5444 74.9865 38.4385 74.9865 38.3045C74.9865 38.1987 75.0182 38.1105 75.0817 38.04C75.1452 37.9624 75.244 37.8989 75.378 37.8495L75.7907 37.7437C75.9177 37.6943 76.0094 37.6202 76.0659 37.5214C76.1294 37.4227 76.1611 37.2639 76.1611 37.0453V30.9818C76.1611 30.7983 76.1329 30.6678 76.0765 30.5902C76.0271 30.5126 75.9424 30.4632 75.8225 30.4421L75.2616 30.3998C75.1346 30.3715 75.0429 30.3257 74.9865 30.2622C74.9301 30.1987 74.9018 30.1176 74.9018 30.0188C74.9018 29.8989 74.9336 29.8036 74.9971 29.7331C75.0676 29.6625 75.1981 29.592 75.3886 29.5214L77.3569 28.8019C77.632 28.7031 77.8507 28.6326 78.013 28.5902C78.1823 28.5479 78.3234 28.5267 78.4362 28.5267C78.6761 28.5267 78.8525 28.5902 78.9653 28.7172C79.0853 28.8371 79.1452 28.9959 79.1452 29.1934ZM77.4204 26.9077C76.856 26.9077 76.401 26.7631 76.0553 26.4738C75.7167 26.1775 75.5473 25.7931 75.5473 25.3204C75.5473 24.8477 75.7167 24.4703 76.0553 24.1881C76.401 23.8989 76.856 23.7543 77.4204 23.7543C77.9918 23.7543 78.4468 23.8989 78.7854 24.1881C79.1311 24.4703 79.304 24.8477 79.304 25.3204C79.304 25.7931 79.1311 26.1775 78.7854 26.4738C78.4468 26.7631 77.9918 26.9077 77.4204 26.9077Z" fill="white"/>
<path d="M85.4179 29.4262C84.9311 29.4262 84.5502 29.5497 84.275 29.7966C84.0069 30.0364 83.8729 30.3433 83.8729 30.7172C83.8729 30.95 83.9223 31.1617 84.0211 31.3521C84.1269 31.5356 84.3244 31.7049 84.6136 31.8601C84.9029 32.0153 85.3262 32.1599 85.8835 32.2939C86.9699 32.5197 87.8094 32.8019 88.402 33.1405C88.9946 33.4791 89.4073 33.8707 89.6401 34.3151C89.8729 34.7525 89.9893 35.2428 89.9893 35.786C89.9893 36.7666 89.6436 37.5497 88.9523 38.1352C88.2609 38.7137 87.2556 39.0029 85.9364 39.0029C85.4708 39.0029 85.0898 38.9606 84.7935 38.8759C84.4972 38.7983 84.2539 38.7207 84.0634 38.6431C83.8729 38.5585 83.7036 38.5162 83.5554 38.5162C83.4073 38.5162 83.2838 38.5585 83.1851 38.6431C83.0934 38.7207 83.0052 38.7983 82.9205 38.8759C82.8359 38.9606 82.723 39.0029 82.5819 39.0029C82.4549 39.0029 82.3597 38.9677 82.2962 38.8971C82.2327 38.8266 82.1727 38.696 82.1163 38.5056L81.4179 36.3786C81.3403 36.1317 81.3156 35.9306 81.3438 35.7754C81.3791 35.6202 81.4743 35.5109 81.6295 35.4474C81.7918 35.3909 81.9329 35.3945 82.0528 35.458C82.1727 35.5144 82.2856 35.6237 82.3914 35.786C82.7089 36.3363 83.0475 36.7772 83.4073 37.1087C83.7671 37.4333 84.1445 37.6696 84.5396 37.8177C84.9417 37.9659 85.3509 38.04 85.7671 38.04C86.3738 38.04 86.8253 37.9165 87.1216 37.6696C87.4249 37.4227 87.5766 37.0946 87.5766 36.6855C87.5766 36.4385 87.5131 36.2163 87.3861 36.0188C87.2592 35.8142 87.0228 35.6308 86.6771 35.4685C86.3315 35.2992 85.8306 35.1405 85.1745 34.9923C84.2644 34.7948 83.5378 34.5408 82.9946 34.2304C82.4584 33.913 82.0704 33.532 81.8306 33.0876C81.5978 32.6431 81.4814 32.1281 81.4814 31.5426C81.4814 30.9289 81.6401 30.3927 81.9576 29.9341C82.275 29.4756 82.7159 29.1193 83.2803 28.8654C83.8447 28.6043 84.4972 28.4738 85.238 28.4738C85.7177 28.4738 86.1022 28.5162 86.3914 28.6008C86.6807 28.6855 86.917 28.7737 87.1004 28.8654C87.2909 28.95 87.4637 28.9923 87.6189 28.9923C87.7882 28.9923 87.9223 28.95 88.0211 28.8654C88.1198 28.7737 88.2151 28.6855 88.3068 28.6008C88.3985 28.5162 88.5114 28.4738 88.6454 28.4738C88.7512 28.4738 88.8394 28.5126 88.9099 28.5902C88.9875 28.6608 89.044 28.7878 89.0793 28.9712L89.5978 30.9923C89.6472 31.2534 89.6577 31.458 89.6295 31.6061C89.6084 31.7542 89.5166 31.8601 89.3544 31.9236C89.1992 31.9871 89.0616 31.98 88.9417 31.9024C88.8218 31.8248 88.7018 31.6872 88.5819 31.4897C88.1445 30.7419 87.6472 30.2128 87.0898 29.9024C86.5396 29.5849 85.9823 29.4262 85.4179 29.4262Z" fill="white"/>
<path d="M91.6884 29.7543L91.2016 29.6061C91.0323 29.5497 90.9124 29.4862 90.8418 29.4156C90.7713 29.338 90.736 29.2498 90.736 29.1511C90.736 29.01 90.7819 28.9042 90.8736 28.8336C90.9723 28.756 91.1028 28.7172 91.2651 28.7172H91.9106C92.0799 28.7172 92.221 28.6855 92.3339 28.622C92.4468 28.5585 92.5632 28.4456 92.6831 28.2834L93.8365 26.6643C93.9847 26.4809 94.1258 26.3468 94.2598 26.2622C94.3938 26.1775 94.5279 26.1352 94.6619 26.1352C94.8101 26.1352 94.9265 26.1811 95.0111 26.2728C95.0958 26.3645 95.1381 26.4985 95.1381 26.6749V35.7225C95.1381 36.2163 95.2333 36.5938 95.4238 36.8548C95.6214 37.1158 95.893 37.2463 96.2386 37.2463C96.4997 37.2463 96.7007 37.1969 96.8418 37.0982C96.99 36.9923 97.1064 36.8724 97.191 36.7384C97.2757 36.6043 97.3568 36.4879 97.4344 36.3892C97.5191 36.2833 97.6249 36.2269 97.7519 36.2199C97.8577 36.2199 97.9388 36.2551 97.9953 36.3257C98.0587 36.3962 98.0905 36.5126 98.0905 36.6749C98.0834 37.077 97.9494 37.4509 97.6884 37.7966C97.4344 38.1423 97.0781 38.4244 96.6196 38.6431C96.161 38.8548 95.639 38.9606 95.0535 38.9606C94.1505 38.9606 93.4415 38.7348 92.9265 38.2833C92.4185 37.8248 92.1646 37.137 92.1646 36.2199V30.3786C92.1646 30.1952 92.1258 30.0611 92.0482 29.9765C91.9776 29.8848 91.8577 29.8107 91.6884 29.7543ZM93.9635 29.7648V28.7172H97.4661C97.6284 28.7172 97.7554 28.7525 97.8471 28.823C97.9459 28.8865 97.9953 28.9818 97.9953 29.1087C97.9953 29.2922 97.9035 29.4474 97.7201 29.5744C97.5367 29.7013 97.2404 29.7648 96.8312 29.7648H93.9635Z" fill="white"/>
<g clip-path="url(#clip2_27720_72320)">
<path d="M111.278 7.26293C119.498 19.9229 117.158 37.6229 104.618 47.1629C104.378 47.4029 104.258 47.7029 104.378 47.8829C104.498 48.0629 104.858 48.0629 105.098 47.8229C111.048 43.1139 114.976 36.3105 116.078 28.8029C117.218 21.2429 115.538 13.5629 111.278 7.26293ZM110.618 42.9029C112.358 44.4029 115.838 43.1429 117.578 39.6629C115.478 38.6429 112.658 40.2629 110.618 42.9029ZM108.758 35.0429C107.618 37.3829 107.618 40.3229 109.358 41.8829C111.398 39.2429 110.798 36.0029 108.758 35.0429ZM113.858 37.6829C115.838 38.8829 118.958 36.9629 119.978 33.2429C117.758 32.7029 115.358 34.8029 113.858 37.6829ZM110.438 30.4829C109.778 33.0029 110.378 35.8829 112.418 36.9629H112.478C113.918 34.0229 112.658 31.0229 110.438 30.4829ZM115.958 32.1029C118.178 32.8229 120.818 30.3629 121.118 26.5229C118.838 26.4029 116.858 28.9829 115.958 32.1029ZM111.218 25.7429C111.038 28.3229 112.238 30.9629 114.458 31.6829V31.6229C115.298 28.5029 113.558 25.8629 111.218 25.7429ZM120.938 19.6829C118.658 20.1029 117.218 22.9829 116.978 26.1629C119.258 26.4629 121.418 23.5229 120.938 19.6829ZM111.098 20.9429C111.458 23.5229 113.078 25.8029 115.358 26.1029L115.418 26.0429C115.598 22.8629 113.378 20.5829 111.098 20.9429ZM110.078 16.2629C110.858 18.7229 112.958 20.6429 115.238 20.4029C114.878 17.2229 112.238 15.4229 110.078 16.2629ZM119.498 13.0229C117.398 13.8629 116.498 16.9229 116.798 20.0429L116.858 20.2229H116.918C119.138 19.9229 120.638 16.8029 119.558 13.2029L119.498 13.0229ZM108.158 11.7629C109.478 14.0429 111.818 15.5429 114.038 14.8829C113.078 11.8229 110.138 10.5029 108.158 11.7629ZM116.738 6.72293C114.818 7.98293 114.578 11.2829 115.538 14.4029C117.758 13.7429 118.718 10.1429 116.738 6.72293ZM105.338 7.68293C107.138 9.72293 109.778 10.7429 111.818 9.66293C110.198 6.78293 106.958 6.06293 105.338 7.68293ZM112.778 0.96293C111.098 2.64293 111.578 6.00293 113.198 8.82293C115.178 7.74293 115.418 4.02293 112.778 0.96293ZM104.378 0.00292969C105.458 2.82293 107.738 5.04293 110.498 6.12293C110.498 3.24293 107.378 0.0629297 104.378 0.00292969Z" fill="#00AA45"/>
</g>
</g>
<defs>
<clipPath id="clip0_27720_72320">
<rect width="120.267" height="48" fill="white" transform="translate(0.851562 0.00292969)"/>
</clipPath>
<clipPath id="clip1_27720_72320">
<rect width="16.8" height="48" fill="white" transform="translate(0.851562 0.00292969)"/>
</clipPath>
<clipPath id="clip2_27720_72320">
<rect width="16.8" height="48" fill="white" transform="matrix(-1 0 0 1 121.118 0.00292969)"/>
</clipPath>
</defs>
</svg>
